<mxfile host="app.diagrams.net" modified="2022-10-09T19:39:12.596Z" agent="5.0 (Windows NT 10.0; Win64; x64) AppleWebKit/537.36 (KHTML, like Gecko) Chrome/106.0.0.0 Safari/537.36" etag="NXVA-j4JV9qQqJ1kkzuv" version="20.2.8" type="github">
  <diagram id="Hdkkt40SQLAFZkWEFDYT" name="Page-1">
    <mxGraphModel dx="1422" dy="758" grid="1" gridSize="10" guides="1" tooltips="1" connect="1" arrows="1" fold="1" page="1" pageScale="1" pageWidth="850" pageHeight="1100" math="0" shadow="0">
      <root>
        <mxCell id="0" />
        <mxCell id="1" parent="0" />
        <mxCell id="4rD1JVjtBZZappZMRNDW-2" value="" style="rounded=0;whiteSpace=wrap;html=1;rotation=-90;" vertex="1" parent="1">
          <mxGeometry x="-30" y="170.5" width="440" height="220" as="geometry" />
        </mxCell>
        <mxCell id="4rD1JVjtBZZappZMRNDW-1" value="" style="shape=image;html=1;verticalAlign=top;verticalLabelPosition=bottom;labelBackgroundColor=#ffffff;imageAspect=0;aspect=fixed;image=https://cdn1.iconfinder.com/data/icons/fruit-136/64/Fruit_iconfree_Filled_Outline_raspberry-healthy-organic-food-fruit_icon-128.png" vertex="1" parent="1">
          <mxGeometry x="125" y="60" width="50" height="50" as="geometry" />
        </mxCell>
        <mxCell id="4rD1JVjtBZZappZMRNDW-12" value="34" style="whiteSpace=wrap;html=1;aspect=fixed;" vertex="1" parent="1">
          <mxGeometry x="190" y="452" width="35" height="35" as="geometry" />
        </mxCell>
        <mxCell id="4rD1JVjtBZZappZMRNDW-13" value="" style="endArrow=none;html=1;rounded=0;exitX=1;exitY=0.5;exitDx=0;exitDy=0;" edge="1" parent="1">
          <mxGeometry width="50" height="50" relative="1" as="geometry">
            <mxPoint x="225" y="470.5" as="sourcePoint" />
            <mxPoint x="780" y="471" as="targetPoint" />
          </mxGeometry>
        </mxCell>
        <mxCell id="4rD1JVjtBZZappZMRNDW-14" value="GND" style="text;html=1;strokeColor=none;fillColor=none;align=center;verticalAlign=middle;whiteSpace=wrap;rounded=0;" vertex="1" parent="1">
          <mxGeometry x="160" y="446" width="30" height="20" as="geometry" />
        </mxCell>
        <mxCell id="4rD1JVjtBZZappZMRNDW-23" value="" style="endArrow=none;html=1;rounded=0;" edge="1" parent="1">
          <mxGeometry width="50" height="50" relative="1" as="geometry">
            <mxPoint x="780" y="470" as="sourcePoint" />
            <mxPoint x="780" y="20" as="targetPoint" />
          </mxGeometry>
        </mxCell>
        <mxCell id="4rD1JVjtBZZappZMRNDW-24" value="" style="endArrow=none;html=1;rounded=0;exitX=1;exitY=0.54;exitDx=0;exitDy=0;exitPerimeter=0;" edge="1" parent="1" source="4rD1JVjtBZZappZMRNDW-21">
          <mxGeometry width="50" height="50" relative="1" as="geometry">
            <mxPoint x="630" y="152.5" as="sourcePoint" />
            <mxPoint x="780" y="130" as="targetPoint" />
          </mxGeometry>
        </mxCell>
        <mxCell id="4rD1JVjtBZZappZMRNDW-28" value="" style="endArrow=none;html=1;rounded=0;exitX=1;exitY=0.8;exitDx=0;exitDy=0;" edge="1" parent="1" source="4rD1JVjtBZZappZMRNDW-27">
          <mxGeometry width="50" height="50" relative="1" as="geometry">
            <mxPoint x="580" y="210" as="sourcePoint" />
            <mxPoint x="780" y="174" as="targetPoint" />
          </mxGeometry>
        </mxCell>
        <mxCell id="4rD1JVjtBZZappZMRNDW-29" value="24" style="whiteSpace=wrap;html=1;aspect=fixed;" vertex="1" parent="1">
          <mxGeometry x="191" y="196" width="35" height="35" as="geometry" />
        </mxCell>
        <mxCell id="4rD1JVjtBZZappZMRNDW-30" value="16" style="whiteSpace=wrap;html=1;aspect=fixed;" vertex="1" parent="1">
          <mxGeometry x="191" y="236" width="35" height="35" as="geometry" />
        </mxCell>
        <mxCell id="4rD1JVjtBZZappZMRNDW-31" value="" style="endArrow=none;html=1;rounded=0;exitX=1;exitY=0.5;exitDx=0;exitDy=0;" edge="1" parent="1" source="4rD1JVjtBZZappZMRNDW-30" target="4rD1JVjtBZZappZMRNDW-36">
          <mxGeometry width="50" height="50" relative="1" as="geometry">
            <mxPoint x="401" y="496" as="sourcePoint" />
            <mxPoint x="481" y="254" as="targetPoint" />
          </mxGeometry>
        </mxCell>
        <mxCell id="4rD1JVjtBZZappZMRNDW-32" value="" style="endArrow=none;html=1;rounded=0;exitX=1;exitY=0.5;exitDx=0;exitDy=0;entryX=0;entryY=0.5;entryDx=0;entryDy=0;entryPerimeter=0;" edge="1" parent="1" source="4rD1JVjtBZZappZMRNDW-29" target="4rD1JVjtBZZappZMRNDW-33">
          <mxGeometry width="50" height="50" relative="1" as="geometry">
            <mxPoint x="331" y="306" as="sourcePoint" />
            <mxPoint x="291" y="214" as="targetPoint" />
          </mxGeometry>
        </mxCell>
        <mxCell id="4rD1JVjtBZZappZMRNDW-33" value="" style="pointerEvents=1;verticalLabelPosition=bottom;shadow=0;dashed=0;align=center;html=1;verticalAlign=top;shape=mxgraph.electrical.resistors.resistor_2;" vertex="1" parent="1">
          <mxGeometry x="280" y="203.5" width="101" height="20" as="geometry" />
        </mxCell>
        <mxCell id="4rD1JVjtBZZappZMRNDW-34" value="" style="verticalLabelPosition=bottom;shadow=0;dashed=0;align=center;html=1;verticalAlign=top;shape=mxgraph.electrical.opto_electronics.led_1;pointerEvents=1;" vertex="1" parent="1">
          <mxGeometry x="551" y="181" width="64" height="65" as="geometry" />
        </mxCell>
        <mxCell id="4rD1JVjtBZZappZMRNDW-35" value="" style="endArrow=none;html=1;rounded=0;exitX=1;exitY=0.5;exitDx=0;exitDy=0;exitPerimeter=0;entryX=0.156;entryY=0.508;entryDx=0;entryDy=0;entryPerimeter=0;" edge="1" parent="1" target="4rD1JVjtBZZappZMRNDW-34">
          <mxGeometry width="50" height="50" relative="1" as="geometry">
            <mxPoint x="384" y="213.5" as="sourcePoint" />
            <mxPoint x="448.0239999999999" y="217.985" as="targetPoint" />
          </mxGeometry>
        </mxCell>
        <mxCell id="4rD1JVjtBZZappZMRNDW-36" value="" style="shape=mxgraph.electrical.electro-mechanical.pushbutton;aspect=fixed;elSwitchState=on;" vertex="1" parent="1">
          <mxGeometry x="451" y="243.5" width="75" height="20" as="geometry" />
        </mxCell>
        <mxCell id="4rD1JVjtBZZappZMRNDW-37" value="23" style="whiteSpace=wrap;html=1;aspect=fixed;" vertex="1" parent="1">
          <mxGeometry x="192" y="280" width="35" height="35" as="geometry" />
        </mxCell>
        <mxCell id="4rD1JVjtBZZappZMRNDW-38" value="12" style="whiteSpace=wrap;html=1;aspect=fixed;" vertex="1" parent="1">
          <mxGeometry x="192" y="320" width="35" height="35" as="geometry" />
        </mxCell>
        <mxCell id="4rD1JVjtBZZappZMRNDW-39" value="" style="endArrow=none;html=1;rounded=0;exitX=1;exitY=0.5;exitDx=0;exitDy=0;" edge="1" parent="1" source="4rD1JVjtBZZappZMRNDW-38" target="4rD1JVjtBZZappZMRNDW-44">
          <mxGeometry width="50" height="50" relative="1" as="geometry">
            <mxPoint x="402" y="580" as="sourcePoint" />
            <mxPoint x="482" y="338" as="targetPoint" />
          </mxGeometry>
        </mxCell>
        <mxCell id="4rD1JVjtBZZappZMRNDW-40" value="" style="endArrow=none;html=1;rounded=0;exitX=1;exitY=0.5;exitDx=0;exitDy=0;entryX=0;entryY=0.5;entryDx=0;entryDy=0;entryPerimeter=0;" edge="1" parent="1" source="4rD1JVjtBZZappZMRNDW-37" target="4rD1JVjtBZZappZMRNDW-41">
          <mxGeometry width="50" height="50" relative="1" as="geometry">
            <mxPoint x="332" y="390" as="sourcePoint" />
            <mxPoint x="292" y="298" as="targetPoint" />
          </mxGeometry>
        </mxCell>
        <mxCell id="4rD1JVjtBZZappZMRNDW-41" value="" style="pointerEvents=1;verticalLabelPosition=bottom;shadow=0;dashed=0;align=center;html=1;verticalAlign=top;shape=mxgraph.electrical.resistors.resistor_2;" vertex="1" parent="1">
          <mxGeometry x="281" y="287.5" width="101" height="20" as="geometry" />
        </mxCell>
        <mxCell id="4rD1JVjtBZZappZMRNDW-42" value="" style="verticalLabelPosition=bottom;shadow=0;dashed=0;align=center;html=1;verticalAlign=top;shape=mxgraph.electrical.opto_electronics.led_1;pointerEvents=1;" vertex="1" parent="1">
          <mxGeometry x="552" y="265" width="64" height="65" as="geometry" />
        </mxCell>
        <mxCell id="4rD1JVjtBZZappZMRNDW-43" value="" style="endArrow=none;html=1;rounded=0;exitX=1;exitY=0.5;exitDx=0;exitDy=0;exitPerimeter=0;entryX=0.156;entryY=0.508;entryDx=0;entryDy=0;entryPerimeter=0;" edge="1" parent="1" target="4rD1JVjtBZZappZMRNDW-42">
          <mxGeometry width="50" height="50" relative="1" as="geometry">
            <mxPoint x="385" y="297.5" as="sourcePoint" />
            <mxPoint x="449.0239999999999" y="301.985" as="targetPoint" />
          </mxGeometry>
        </mxCell>
        <mxCell id="4rD1JVjtBZZappZMRNDW-44" value="" style="shape=mxgraph.electrical.electro-mechanical.pushbutton;aspect=fixed;elSwitchState=on;" vertex="1" parent="1">
          <mxGeometry x="452" y="327.5" width="75" height="20" as="geometry" />
        </mxCell>
        <mxCell id="4rD1JVjtBZZappZMRNDW-45" value="" style="group" vertex="1" connectable="0" parent="1">
          <mxGeometry x="190" y="80" width="424" height="105" as="geometry" />
        </mxCell>
        <mxCell id="4rD1JVjtBZZappZMRNDW-15" value="20" style="whiteSpace=wrap;html=1;aspect=fixed;" vertex="1" parent="4rD1JVjtBZZappZMRNDW-45">
          <mxGeometry y="30" width="35" height="35" as="geometry" />
        </mxCell>
        <mxCell id="4rD1JVjtBZZappZMRNDW-16" value="21" style="whiteSpace=wrap;html=1;aspect=fixed;" vertex="1" parent="4rD1JVjtBZZappZMRNDW-45">
          <mxGeometry y="70" width="35" height="35" as="geometry" />
        </mxCell>
        <mxCell id="4rD1JVjtBZZappZMRNDW-17" value="" style="endArrow=none;html=1;rounded=0;exitX=1;exitY=0.5;exitDx=0;exitDy=0;" edge="1" parent="4rD1JVjtBZZappZMRNDW-45" source="4rD1JVjtBZZappZMRNDW-16" target="4rD1JVjtBZZappZMRNDW-27">
          <mxGeometry width="50" height="50" relative="1" as="geometry">
            <mxPoint x="210" y="330" as="sourcePoint" />
            <mxPoint x="290" y="88" as="targetPoint" />
          </mxGeometry>
        </mxCell>
        <mxCell id="4rD1JVjtBZZappZMRNDW-18" value="" style="endArrow=none;html=1;rounded=0;exitX=1;exitY=0.5;exitDx=0;exitDy=0;entryX=0;entryY=0.5;entryDx=0;entryDy=0;entryPerimeter=0;" edge="1" parent="4rD1JVjtBZZappZMRNDW-45" source="4rD1JVjtBZZappZMRNDW-15" target="4rD1JVjtBZZappZMRNDW-19">
          <mxGeometry width="50" height="50" relative="1" as="geometry">
            <mxPoint x="140" y="140" as="sourcePoint" />
            <mxPoint x="100" y="48" as="targetPoint" />
          </mxGeometry>
        </mxCell>
        <mxCell id="4rD1JVjtBZZappZMRNDW-19" value="" style="pointerEvents=1;verticalLabelPosition=bottom;shadow=0;dashed=0;align=center;html=1;verticalAlign=top;shape=mxgraph.electrical.resistors.resistor_2;" vertex="1" parent="4rD1JVjtBZZappZMRNDW-45">
          <mxGeometry x="89" y="37.5" width="101" height="20" as="geometry" />
        </mxCell>
        <mxCell id="4rD1JVjtBZZappZMRNDW-20" value="330" style="text;html=1;strokeColor=none;fillColor=none;align=center;verticalAlign=middle;whiteSpace=wrap;rounded=0;" vertex="1" parent="4rD1JVjtBZZappZMRNDW-45">
          <mxGeometry x="109" width="60" height="30" as="geometry" />
        </mxCell>
        <mxCell id="4rD1JVjtBZZappZMRNDW-21" value="" style="verticalLabelPosition=bottom;shadow=0;dashed=0;align=center;html=1;verticalAlign=top;shape=mxgraph.electrical.opto_electronics.led_1;pointerEvents=1;" vertex="1" parent="4rD1JVjtBZZappZMRNDW-45">
          <mxGeometry x="360" y="15" width="64" height="65" as="geometry" />
        </mxCell>
        <mxCell id="4rD1JVjtBZZappZMRNDW-26" value="" style="endArrow=none;html=1;rounded=0;exitX=1;exitY=0.5;exitDx=0;exitDy=0;exitPerimeter=0;entryX=0.156;entryY=0.508;entryDx=0;entryDy=0;entryPerimeter=0;" edge="1" parent="4rD1JVjtBZZappZMRNDW-45" target="4rD1JVjtBZZappZMRNDW-21">
          <mxGeometry width="50" height="50" relative="1" as="geometry">
            <mxPoint x="193" y="47.5" as="sourcePoint" />
            <mxPoint x="257.0239999999999" y="51.985000000000014" as="targetPoint" />
          </mxGeometry>
        </mxCell>
        <mxCell id="4rD1JVjtBZZappZMRNDW-27" value="" style="shape=mxgraph.electrical.electro-mechanical.pushbutton;aspect=fixed;elSwitchState=on;" vertex="1" parent="4rD1JVjtBZZappZMRNDW-45">
          <mxGeometry x="260" y="77.5" width="75" height="20" as="geometry" />
        </mxCell>
        <mxCell id="4rD1JVjtBZZappZMRNDW-46" value="18" style="whiteSpace=wrap;html=1;aspect=fixed;" vertex="1" parent="1">
          <mxGeometry x="193" y="363" width="35" height="35" as="geometry" />
        </mxCell>
        <mxCell id="4rD1JVjtBZZappZMRNDW-47" value="4" style="whiteSpace=wrap;html=1;aspect=fixed;" vertex="1" parent="1">
          <mxGeometry x="193" y="403" width="35" height="35" as="geometry" />
        </mxCell>
        <mxCell id="4rD1JVjtBZZappZMRNDW-48" value="" style="endArrow=none;html=1;rounded=0;exitX=1;exitY=0.5;exitDx=0;exitDy=0;" edge="1" parent="1" source="4rD1JVjtBZZappZMRNDW-47" target="4rD1JVjtBZZappZMRNDW-53">
          <mxGeometry width="50" height="50" relative="1" as="geometry">
            <mxPoint x="403" y="663" as="sourcePoint" />
            <mxPoint x="483" y="421" as="targetPoint" />
          </mxGeometry>
        </mxCell>
        <mxCell id="4rD1JVjtBZZappZMRNDW-49" value="" style="endArrow=none;html=1;rounded=0;exitX=1;exitY=0.5;exitDx=0;exitDy=0;entryX=0;entryY=0.5;entryDx=0;entryDy=0;entryPerimeter=0;" edge="1" parent="1" source="4rD1JVjtBZZappZMRNDW-46" target="4rD1JVjtBZZappZMRNDW-50">
          <mxGeometry width="50" height="50" relative="1" as="geometry">
            <mxPoint x="333" y="473" as="sourcePoint" />
            <mxPoint x="293" y="381" as="targetPoint" />
          </mxGeometry>
        </mxCell>
        <mxCell id="4rD1JVjtBZZappZMRNDW-50" value="" style="pointerEvents=1;verticalLabelPosition=bottom;shadow=0;dashed=0;align=center;html=1;verticalAlign=top;shape=mxgraph.electrical.resistors.resistor_2;" vertex="1" parent="1">
          <mxGeometry x="282" y="370.5" width="101" height="20" as="geometry" />
        </mxCell>
        <mxCell id="4rD1JVjtBZZappZMRNDW-51" value="" style="verticalLabelPosition=bottom;shadow=0;dashed=0;align=center;html=1;verticalAlign=top;shape=mxgraph.electrical.opto_electronics.led_1;pointerEvents=1;" vertex="1" parent="1">
          <mxGeometry x="553" y="348" width="64" height="65" as="geometry" />
        </mxCell>
        <mxCell id="4rD1JVjtBZZappZMRNDW-52" value="" style="endArrow=none;html=1;rounded=0;exitX=1;exitY=0.5;exitDx=0;exitDy=0;exitPerimeter=0;entryX=0.156;entryY=0.508;entryDx=0;entryDy=0;entryPerimeter=0;" edge="1" parent="1" target="4rD1JVjtBZZappZMRNDW-51">
          <mxGeometry width="50" height="50" relative="1" as="geometry">
            <mxPoint x="386" y="380.5" as="sourcePoint" />
            <mxPoint x="450.0239999999999" y="384.985" as="targetPoint" />
          </mxGeometry>
        </mxCell>
        <mxCell id="4rD1JVjtBZZappZMRNDW-53" value="" style="shape=mxgraph.electrical.electro-mechanical.pushbutton;aspect=fixed;elSwitchState=on;" vertex="1" parent="1">
          <mxGeometry x="453" y="410.5" width="75" height="20" as="geometry" />
        </mxCell>
        <mxCell id="4rD1JVjtBZZappZMRNDW-54" value="" style="endArrow=none;html=1;rounded=0;exitX=1;exitY=0.54;exitDx=0;exitDy=0;exitPerimeter=0;" edge="1" parent="1" source="4rD1JVjtBZZappZMRNDW-34">
          <mxGeometry width="50" height="50" relative="1" as="geometry">
            <mxPoint x="670" y="246" as="sourcePoint" />
            <mxPoint x="780" y="214" as="targetPoint" />
          </mxGeometry>
        </mxCell>
        <mxCell id="4rD1JVjtBZZappZMRNDW-55" value="" style="endArrow=none;html=1;rounded=0;exitX=1;exitY=0.54;exitDx=0;exitDy=0;exitPerimeter=0;" edge="1" parent="1">
          <mxGeometry width="50" height="50" relative="1" as="geometry">
            <mxPoint x="614" y="298.55" as="sourcePoint" />
            <mxPoint x="779" y="296.45" as="targetPoint" />
          </mxGeometry>
        </mxCell>
        <mxCell id="4rD1JVjtBZZappZMRNDW-56" value="" style="endArrow=none;html=1;rounded=0;exitX=1;exitY=0.54;exitDx=0;exitDy=0;exitPerimeter=0;" edge="1" parent="1">
          <mxGeometry width="50" height="50" relative="1" as="geometry">
            <mxPoint x="614" y="382.1" as="sourcePoint" />
            <mxPoint x="779" y="380" as="targetPoint" />
          </mxGeometry>
        </mxCell>
        <mxCell id="4rD1JVjtBZZappZMRNDW-57" value="" style="endArrow=none;html=1;rounded=0;exitX=1;exitY=0.8;exitDx=0;exitDy=0;" edge="1" parent="1" source="4rD1JVjtBZZappZMRNDW-36">
          <mxGeometry width="50" height="50" relative="1" as="geometry">
            <mxPoint x="617" y="254.55" as="sourcePoint" />
            <mxPoint x="782" y="252.45" as="targetPoint" />
          </mxGeometry>
        </mxCell>
        <mxCell id="4rD1JVjtBZZappZMRNDW-58" value="" style="endArrow=none;html=1;rounded=0;exitX=1;exitY=0.8;exitDx=0;exitDy=0;" edge="1" parent="1" source="4rD1JVjtBZZappZMRNDW-44">
          <mxGeometry width="50" height="50" relative="1" as="geometry">
            <mxPoint x="615" y="338.55" as="sourcePoint" />
            <mxPoint x="780" y="336.45" as="targetPoint" />
          </mxGeometry>
        </mxCell>
        <mxCell id="4rD1JVjtBZZappZMRNDW-59" value="" style="endArrow=none;html=1;rounded=0;exitX=1;exitY=0.8;exitDx=0;exitDy=0;" edge="1" parent="1" source="4rD1JVjtBZZappZMRNDW-53">
          <mxGeometry width="50" height="50" relative="1" as="geometry">
            <mxPoint x="617" y="421.55" as="sourcePoint" />
            <mxPoint x="782" y="419.45" as="targetPoint" />
          </mxGeometry>
        </mxCell>
        <mxCell id="4rD1JVjtBZZappZMRNDW-70" value="330" style="text;strokeColor=none;fillColor=none;align=left;verticalAlign=middle;spacingLeft=4;spacingRight=4;overflow=hidden;points=[[0,0.5],[1,0.5]];portConstraint=eastwest;rotatable=0;" vertex="1" parent="1">
          <mxGeometry x="310" y="173.5" width="80" height="30" as="geometry" />
        </mxCell>
        <mxCell id="4rD1JVjtBZZappZMRNDW-71" value="330" style="text;strokeColor=none;fillColor=none;align=left;verticalAlign=middle;spacingLeft=4;spacingRight=4;overflow=hidden;points=[[0,0.5],[1,0.5]];portConstraint=eastwest;rotatable=0;" vertex="1" parent="1">
          <mxGeometry x="310" y="255" width="80" height="30" as="geometry" />
        </mxCell>
        <mxCell id="4rD1JVjtBZZappZMRNDW-72" value="330" style="text;strokeColor=none;fillColor=none;align=left;verticalAlign=middle;spacingLeft=4;spacingRight=4;overflow=hidden;points=[[0,0.5],[1,0.5]];portConstraint=eastwest;rotatable=0;" vertex="1" parent="1">
          <mxGeometry x="310" y="348" width="80" height="30" as="geometry" />
        </mxCell>
      </root>
    </mxGraphModel>
  </diagram>
</mxfile>
